<svg viewBox="0 0 1000 500" xmlns="http://www.w3.org/2000/svg"><g fill="#f45675"><path d="m176.53 381.72v-.23c0-23.73 18.48-43.16 43.76-43.16 12.63 0 21 2.86 28.49 8.11a9.16 9.16 0 0 1 3.81 7.39 9.05 9.05 0 0 1 -9.06 9.06 8.9 8.9 0 0 1 -5.6-1.91 29.26 29.26 0 0 0 -18.24-5.72c-13.35 0-24 11.8-24 26v.24c0 15.26 10.49 26.46 25.27 26.46 6.68 0 12.64-1.67 17.29-5v-11.96h-12.4a7.88 7.88 0 0 1 -8-7.86 8 8 0 0 1 8-8h21a9.1 9.1 0 0 1 9.18 9.18v20.26c0 5.37-2 9.06-6.44 11.69a55.53 55.53 0 0 1 -29.21 8.34c-25.96.03-43.85-18.21-43.85-42.89z"/><path d="m271.78 367.66a9.06 9.06 0 0 1 18.12 0v2.86c2.62-6.2 6.91-11.92 12.28-11.92 5.6 0 8.82 3.69 8.82 8.82a8.33 8.33 0 0 1 -6.8 8.46c-9.18 2.15-14.3 9.18-14.3 22.06v16.93a9.06 9.06 0 0 1 -18.12 0z"/><path d="m379.66 414.87a9.06 9.06 0 0 1 -18.12 0v-.72c-4.17 5.36-9.54 10.25-18.72 10.25-13.71 0-21.69-9.06-21.69-23.72v-33a9.06 9.06 0 0 1 18.12 0v27.32c0 8.58 4.05 13 11 13s11.32-4.41 11.32-13v-27.3a9.06 9.06 0 1 1 18.12 0z"/><path d="m395.87 367.66a9.06 9.06 0 0 1 18.12 0v.83c4.41-6 10.49-10.37 19.9-10.37 14.91 0 29.09 11.68 29.09 33v.24c0 21.34-14 33-29.09 33-9.65 0-15.61-4.41-19.9-9.53v19.07a9.06 9.06 0 0 1 -18.12 0zm49 23.72v-.24c0-10.61-7.15-17.64-15.62-17.64s-15.49 7-15.49 17.64v.24c0 10.61 7 17.64 15.49 17.64s15.61-6.91 15.61-17.64z"/><path d="m476.09 344.05c0-5.24 4.41-8.46 10.13-8.46s10.13 3.22 10.13 8.46v.24c0 5.25-4.41 8.59-10.13 8.59s-10.13-3.34-10.13-8.59zm1.07 23.61a9.06 9.06 0 1 1 18.12 0v47.21a9.06 9.06 0 1 1 -18.12 0z"/></g><path d="m515.9 416.65a4.13 4.13 0 0 1 -1.67-3.33 4 4 0 0 1 4-3.94 3.66 3.66 0 0 1 2.27.72c6.32 4.29 12.87 6.55 19.55 6.55 7.39 0 12.76-3.81 12.76-9.77v-.24c0-6.2-7.28-8.58-15.38-10.85-9.66-2.74-20.39-6.08-20.39-17.4v-.24c0-10.61 8.82-17.65 21-17.65a42.91 42.91 0 0 1 19.67 5.25 4.47 4.47 0 0 1 2.27 3.81 4 4 0 0 1 -3.98 3.94 4.55 4.55 0 0 1 -2-.48c-5.25-3-10.85-4.77-16.1-4.77-7.27 0-11.92 3.82-11.92 8.94v.24c0 5.84 7.63 8.11 15.86 10.61 9.54 2.86 19.79 6.56 19.79 17.65v.23c0 11.69-9.66 18.48-21.94 18.48a42.63 42.63 0 0 1 -23.79-7.75z" fill="#4e4e4e"/><path d="m578.6 340.24a4.59 4.59 0 1 1 9.18 0v32.07c4.05-6.68 10.49-12 21.1-12 14.9 0 23.6 10 23.6 24.67v34.22a4.59 4.59 0 1 1 -9.18 0v-32c0-11.45-6.19-18.6-17-18.6-10.61 0-18.48 7.75-18.48 19.31v31.24a4.49 4.49 0 0 1 -4.53 4.65 4.59 4.59 0 0 1 -4.65-4.65z" fill="#4e4e4e"/><path d="m648.21 392.69v-.24a32.13 32.13 0 0 1 64.26-.23v.23a32 32 0 0 1 -32.31 32.19 31.57 31.57 0 0 1 -31.95-31.95zm54.84 0v-.24c0-13.23-9.89-24.08-22.89-24.08-13.35 0-22.53 10.85-22.53 23.85v.23c0 13.24 9.78 24 22.77 24 13.35-.03 22.65-10.76 22.65-23.76z" fill="#4e4e4e"/><path d="m729 365.63a4.59 4.59 0 1 1 9.18 0v8.37c5-7.39 12.28-13.71 23.6-13.71 14.79 0 29.45 11.68 29.45 32v.23c0 20.15-14.54 32.07-29.45 32.07-11.44 0-18.83-6.2-23.6-13.11v26.82a4.49 4.49 0 0 1 -4.53 4.65 4.59 4.59 0 0 1 -4.65-4.65zm52.81 26.94v-.24c0-14.54-10-23.84-21.7-23.84-11.44 0-22.29 9.66-22.29 23.73v.23c0 14.31 10.85 23.85 22.29 23.85 11.96 0 21.73-8.82 21.73-23.73z" fill="#4e4e4e"/><path d="m545.92 148.89h-119.4a11.61 11.61 0 0 0 -11.52 10.21l-25.55 131.07a11.62 11.62 0 0 0 11.53 13h170.48a11.62 11.62 0 0 0 11.53-13l-25.53-131.07a11.62 11.62 0 0 0 -11.54-10.21z" fill="#f45675"/><circle cx="486.22" cy="77.46" fill="#f45675" r="29.65"/><circle cx="536.62" cy="113.2" fill="#f45675" r="20.75"/><circle cx="435.82" cy="113.2" fill="#f45675" r="20.75"/><path d="m487.61 265a24.52 24.52 0 0 1 -18.15-8 4.5 4.5 0 0 1 6.67-6 15.5 15.5 0 0 0 27-10.41 4.51 4.51 0 0 1 4.5-4.5 4.49 4.49 0 0 1 4.5 4.5 24.51 24.51 0 0 1 -24.52 24.41z" fill="#fff"/><ellipse cx="446.03" cy="211.49" fill="#fff" rx="10.38" ry="14.98"/><path d="m511.13 224.18a4.5 4.5 0 0 1 -4.35-5.66 17.34 17.34 0 0 1 33.52 0 4.5 4.5 0 1 1 -8.7 2.31 8.34 8.34 0 0 0 -16.12 0 4.52 4.52 0 0 1 -4.35 3.35z" fill="#fff"/></svg>