<svg id="Capa_1" data-name="Capa 1" xmlns="http://www.w3.org/2000/svg" viewBox="0 0 1000 500"><defs><style>.cls-1{fill:#FFFFFF;}.cls-2{fill:#FFFFFF;}.cls-3{fill:#F45675;}</style></defs><title>Grupishop</title><path class="cls-1" d="M176.53,381.72v-.23c0-23.73,18.48-43.16,43.76-43.16,12.63,0,21,2.86,28.49,8.11a9.16,9.16,0,0,1,3.81,7.39,9.05,9.05,0,0,1-9.06,9.06,8.9,8.9,0,0,1-5.6-1.91,29.26,29.26,0,0,0-18.24-5.72c-13.35,0-24,11.8-24,26v.24c0,15.26,10.49,26.46,25.27,26.46,6.68,0,12.64-1.67,17.29-5V391h-12.4a7.88,7.88,0,0,1-8-7.86,8,8,0,0,1,8-8h21a9.1,9.1,0,0,1,9.18,9.18v20.26c0,5.37-2,9.06-6.44,11.69a55.53,55.53,0,0,1-29.21,8.34C194.42,424.64,176.53,406.4,176.53,381.72Z"/><path class="cls-1" d="M271.78,367.66a9.06,9.06,0,0,1,18.12,0v2.86c2.62-6.2,6.91-11.92,12.28-11.92,5.6,0,8.82,3.69,8.82,8.82a8.33,8.33,0,0,1-6.8,8.46c-9.18,2.15-14.3,9.18-14.3,22.06v16.93a9.06,9.06,0,0,1-18.12,0Z"/><path class="cls-1" d="M379.66,414.87a9.06,9.06,0,0,1-18.12,0v-.72c-4.17,5.36-9.54,10.25-18.72,10.25-13.71,0-21.69-9.06-21.69-23.72v-33a9.06,9.06,0,0,1,18.12,0V395c0,8.58,4.05,13,11,13s11.32-4.41,11.32-13v-27.3a9.06,9.06,0,1,1,18.12,0Z"/><path class="cls-1" d="M395.87,367.66a9.06,9.06,0,0,1,18.12,0v.83c4.41-6,10.49-10.37,19.9-10.37,14.91,0,29.09,11.68,29.09,33v.24c0,21.34-14,33-29.09,33-9.65,0-15.61-4.41-19.9-9.53v19.07a9.06,9.06,0,0,1-18.12,0Zm49,23.72v-.24c0-10.61-7.15-17.64-15.62-17.64s-15.49,7-15.49,17.64v.24c0,10.61,7,17.64,15.49,17.64S444.86,402.11,444.86,391.38Z"/><path class="cls-1" d="M476.09,344.05c0-5.24,4.41-8.46,10.13-8.46s10.13,3.22,10.13,8.46v.24c0,5.25-4.41,8.59-10.13,8.59s-10.13-3.34-10.13-8.59Zm1.07,23.61a9.06,9.06,0,1,1,18.12,0v47.21a9.06,9.06,0,1,1-18.12,0Z"/><path class="cls-2" d="M515.9,416.65a4.13,4.13,0,0,1-1.67-3.33,4,4,0,0,1,4-3.94,3.66,3.66,0,0,1,2.27.72c6.32,4.29,12.87,6.55,19.55,6.55,7.39,0,12.76-3.81,12.76-9.77v-.24c0-6.2-7.28-8.58-15.38-10.85-9.66-2.74-20.39-6.08-20.39-17.4v-.24c0-10.61,8.82-17.65,21-17.65a42.91,42.91,0,0,1,19.67,5.25,4.47,4.47,0,0,1,2.27,3.81A4,4,0,0,1,556,373.5a4.55,4.55,0,0,1-2-.48c-5.25-3-10.85-4.77-16.1-4.77-7.27,0-11.92,3.82-11.92,8.94v.24c0,5.84,7.63,8.11,15.86,10.61,9.54,2.86,19.79,6.56,19.79,17.65v.23c0,11.69-9.66,18.48-21.94,18.48A42.63,42.63,0,0,1,515.9,416.65Z"/><path class="cls-2" d="M578.6,340.24a4.59,4.59,0,1,1,9.18,0v32.07c4.05-6.68,10.49-12,21.1-12,14.9,0,23.6,10,23.6,24.67v34.22a4.59,4.59,0,1,1-9.18,0v-32c0-11.45-6.19-18.6-17-18.6-10.61,0-18.48,7.75-18.48,19.31v31.24a4.49,4.49,0,0,1-4.53,4.65,4.59,4.59,0,0,1-4.65-4.65Z"/><path class="cls-2" d="M648.21,392.69v-.24a32.13,32.13,0,0,1,64.26-.23v.23a32,32,0,0,1-32.31,32.19A31.57,31.57,0,0,1,648.21,392.69Zm54.84,0v-.24c0-13.23-9.89-24.08-22.89-24.08-13.35,0-22.53,10.85-22.53,23.85v.23c0,13.24,9.78,24,22.77,24C693.75,416.42,703.05,405.69,703.05,392.69Z"/><path class="cls-2" d="M729,365.63a4.59,4.59,0,1,1,9.18,0V374c5-7.39,12.28-13.71,23.6-13.71,14.79,0,29.45,11.68,29.45,32v.23c0,20.15-14.54,32.07-29.45,32.07-11.44,0-18.83-6.2-23.6-13.11v26.82a4.49,4.49,0,0,1-4.53,4.65,4.59,4.59,0,0,1-4.65-4.65Zm52.81,26.94v-.24c0-14.54-10-23.84-21.7-23.84-11.44,0-22.29,9.66-22.29,23.73v.23c0,14.31,10.85,23.85,22.29,23.85C772.07,416.3,781.84,407.48,781.84,392.57Z"/><path class="cls-1" d="M545.92,148.89H426.52A11.61,11.61,0,0,0,415,159.1L389.45,290.17a11.62,11.62,0,0,0,11.53,13H571.46a11.62,11.62,0,0,0,11.53-13L557.46,159.1A11.62,11.62,0,0,0,545.92,148.89Z"/><circle class="cls-1" cx="486.22" cy="77.46" r="29.65"/><circle class="cls-1" cx="536.62" cy="113.2" r="20.75"/><circle class="cls-1" cx="435.82" cy="113.2" r="20.75"/><path class="cls-3" d="M487.61,265a24.52,24.52,0,0,1-18.15-8,4.5,4.5,0,0,1,6.67-6,15.5,15.5,0,0,0,27-10.41,4.51,4.51,0,0,1,4.5-4.5h0a4.49,4.49,0,0,1,4.5,4.5A24.51,24.51,0,0,1,487.61,265Z"/><ellipse class="cls-3" cx="446.03" cy="211.49" rx="10.38" ry="14.98"/><path class="cls-3" d="M511.13,224.18a4.5,4.5,0,0,1-4.35-5.66,17.34,17.34,0,0,1,33.52,0,4.5,4.5,0,1,1-8.7,2.31,8.34,8.34,0,0,0-16.12,0A4.52,4.52,0,0,1,511.13,224.18Z"/></svg>